<svg width="46" height="23" viewBox="0 0 46 23" fill="none" xmlns="http://www.w3.org/2000/svg">
<path d="M15.8842 3.19155C15.8842 5.51535 13.8938 7.72639 9.91293 9.82468C10.7169 10.5993 11.3494 11.2513 11.8102 11.7808C12.271 12.3005 12.6681 12.9133 13.0015 13.6192C13.3349 14.3252 13.5016 15.0998 13.5016 15.943C13.5016 17.1883 13.1388 18.2816 12.4132 19.2228C11.6876 20.1641 10.7022 20.8946 9.45699 21.4143C8.21175 21.9241 6.83904 22.1791 5.33886 22.1791C3.71122 22.1791 2.41205 21.8604 1.44135 21.2231C0.480448 20.5759 0 19.5954 0 18.2816C0 16.6441 0.705965 15.1733 2.1179 13.8693C3.52983 12.5554 5.231 11.467 7.22143 10.6042C6.63313 10.0355 6.14288 9.51582 5.75067 9.04518C5.36828 8.56473 5.05451 8.03525 4.80939 7.45675C4.56426 6.86845 4.4417 6.23112 4.4417 5.54477C4.4417 4.46621 4.78487 3.50531 5.47123 2.66208C6.15758 1.81884 7.05475 1.1668 8.16272 0.705965C9.27069 0.235322 10.4277 0 11.6337 0C12.9084 0 13.933 0.269639 14.7076 0.808918C15.492 1.3482 15.8842 2.14241 15.8842 3.19155ZM9.57465 9.50111C10.2708 9.03047 10.913 8.45687 11.5013 7.78032C12.0897 7.10377 12.5603 6.36349 12.9133 5.55947C13.2663 4.74565 13.4428 3.92693 13.4428 3.1033C13.4428 1.39722 12.6583 0.544181 11.0895 0.544181C10.3443 0.544181 9.65309 0.730478 9.01576 1.10307C8.37843 1.46586 7.87347 1.98062 7.50088 2.64737C7.12829 3.30431 6.94199 4.04949 6.94199 4.88292C6.94199 5.47123 7.05475 6.03012 7.28026 6.55959C7.51559 7.07926 7.81464 7.56461 8.17743 8.01564C8.55002 8.45687 9.01576 8.95203 9.57465 9.50111ZM10.8248 16.5755C10.8248 15.8009 10.6777 15.09 10.3836 14.4429C10.0894 13.7957 9.72663 13.227 9.29521 12.7368C8.87359 12.2465 8.29999 11.6484 7.57442 10.9425C6.61352 11.4719 5.76048 12.1387 5.01529 12.9427C4.27991 13.7369 3.70141 14.6194 3.2798 15.5901C2.86798 16.5608 2.66208 17.5511 2.66208 18.561C2.66208 19.5317 2.88759 20.2867 3.33863 20.826C3.79946 21.3652 4.55445 21.6349 5.6036 21.6349C6.51547 21.6349 7.36851 21.4339 8.16272 21.0319C8.96674 20.6299 9.60897 20.0465 10.0894 19.2817C10.5797 18.5071 10.8248 17.605 10.8248 16.5755Z" fill="#E5BF9B"/>
<path d="M28.5622 14.9723H17.6932L18.1345 13.2221H29.0181L28.5622 14.9723Z" fill="#E5BF9B"/>
<path d="M45.1082 19.0758C44.7356 20.1935 44.216 20.9927 43.5492 21.4731C42.8825 21.9437 42.1569 22.1791 41.3725 22.1791C40.039 22.1791 39.3723 21.5466 39.3723 20.2818C39.3723 19.6248 39.5389 18.8404 39.8723 17.9286L41.2695 13.9281C40.7008 14.0654 40.0782 14.1585 39.4017 14.2075C38.8526 14.3252 38.4065 14.4723 38.0633 14.6488C37.7299 14.8155 37.4309 15.0606 37.1661 15.3842C36.9014 15.7077 36.617 16.1735 36.3131 16.7814L35.5924 18.6787C35.1218 19.9435 34.5972 20.8456 34.0187 21.3849C33.45 21.9143 32.7685 22.1791 31.9743 22.1791C31.3272 22.1791 30.7879 22.0075 30.3565 21.6643C29.9251 21.3211 29.5819 20.7671 29.327 20.0023L29.7241 19.7376C29.8908 19.9925 30.1163 20.1886 30.4006 20.3259C30.685 20.4534 30.9595 20.5171 31.2242 20.5171C31.5086 20.5171 31.7439 20.4583 31.9302 20.3406C32.1165 20.2132 32.2734 20.0514 32.4009 19.8553C32.5283 19.6494 32.6754 19.3601 32.8421 18.9875L33.6951 17.0902C34.1462 16.1588 34.6658 15.4773 35.2541 15.0459C35.8424 14.6145 36.519 14.3252 37.2838 14.1781C36.3131 14.0409 35.5728 13.7173 35.0629 13.2074C34.5531 12.6878 34.2981 12.0308 34.2981 11.2366C34.2981 10.4718 34.5237 9.68251 34.9747 8.86868C35.4257 8.04506 36.2003 7.33909 37.2985 6.75079C38.3967 6.15268 39.8478 5.85363 41.6519 5.85363C43.0345 5.85363 44.0297 6.04973 44.6376 6.44193C45.2553 6.83413 45.5642 7.43714 45.5642 8.25097C45.5642 8.83927 45.4122 9.57465 45.1082 10.4571L42.0049 19.1934C41.8775 19.5562 41.8137 19.8945 41.8137 20.2082C41.8137 20.7769 42.0687 21.0613 42.5785 21.0613C43.0099 21.0613 43.407 20.826 43.7698 20.3553C44.1326 19.8749 44.5101 19.0856 44.9023 17.9874L45.2847 16.8696H45.8583L45.1082 19.0758ZM42.6668 9.97176C43.0001 9.03047 43.1668 8.29999 43.1668 7.78032C43.1668 7.27046 43.0246 6.91257 42.7403 6.70667C42.456 6.50076 42.0294 6.39781 41.4607 6.39781C40.6077 6.39781 39.8184 6.58901 39.0928 6.9714C38.3672 7.344 37.7887 7.87837 37.3573 8.57453C36.9259 9.26089 36.7102 10.0502 36.7102 10.9425C36.7102 11.7563 36.921 12.4034 37.3426 12.8839C37.7642 13.3545 38.4457 13.5898 39.387 13.5898C40.0047 13.5898 40.6959 13.5261 41.4607 13.3986L42.6668 9.97176Z" fill="#E5BF9B"/>
</svg>
