<svg width="133" height="14" viewBox="0 0 133 14" fill="none" xmlns="http://www.w3.org/2000/svg">
<path d="M7.27534 13.9999C5.98615 13.9999 4.81745 13.7228 3.76923 13.1686C2.73306 12.6023 1.91377 11.8252 1.31134 10.8372C0.720969 9.83717 0.425781 8.71064 0.425781 7.4576C0.425781 6.20456 0.720969 5.08405 1.31134 4.09608C1.91377 3.09606 2.73306 2.31893 3.76923 1.7647C4.81745 1.19842 5.99218 0.915283 7.29341 0.915283C8.38982 0.915283 9.3778 1.10806 10.2573 1.49361C11.1489 1.87916 11.8959 2.43339 12.4984 3.1563L10.6188 4.89128C9.76335 3.9033 8.70308 3.40932 7.43799 3.40932C6.65484 3.40932 5.95603 3.58402 5.34156 3.93342C4.72709 4.27078 4.24515 4.7467 3.89574 5.36117C3.55838 5.97564 3.38971 6.67445 3.38971 7.4576C3.38971 8.24075 3.55838 8.93956 3.89574 9.55404C4.24515 10.1685 4.72709 10.6504 5.34156 10.9999C5.95603 11.3372 6.65484 11.5059 7.43799 11.5059C8.70308 11.5059 9.76335 11.0059 10.6188 10.0059L12.4984 11.7408C11.8959 12.4758 11.1489 13.036 10.2573 13.4216C9.36575 13.8071 8.37175 13.9999 7.27534 13.9999Z" fill="white"/>
<path d="M20.1781 13.9999C18.8648 13.9999 17.6781 13.7168 16.6178 13.1505C15.5696 12.5842 14.7443 11.8071 14.1418 10.8191C13.5515 9.8191 13.2563 8.69859 13.2563 7.4576C13.2563 6.21661 13.5515 5.10213 14.1418 4.11415C14.7443 3.11413 15.5696 2.33098 16.6178 1.7647C17.6781 1.19842 18.8648 0.915283 20.1781 0.915283C21.4914 0.915283 22.6722 1.19842 23.7204 1.7647C24.7686 2.33098 25.5939 3.11413 26.1963 4.11415C26.7988 5.10213 27.1 6.21661 27.1 7.4576C27.1 8.69859 26.7988 9.8191 26.1963 10.8191C25.5939 11.8071 24.7686 12.5842 23.7204 13.1505C22.6722 13.7168 21.4914 13.9999 20.1781 13.9999ZM20.1781 11.5059C20.9251 11.5059 21.5998 11.3372 22.2023 10.9999C22.8047 10.6504 23.2746 10.1685 23.6119 9.55404C23.9613 8.93956 24.136 8.24075 24.136 7.4576C24.136 6.67445 23.9613 5.97564 23.6119 5.36117C23.2746 4.7467 22.8047 4.27078 22.2023 3.93342C21.5998 3.58402 20.9251 3.40932 20.1781 3.40932C19.4311 3.40932 18.7564 3.58402 18.154 3.93342C17.5516 4.27078 17.0756 4.7467 16.7262 5.36117C16.3889 5.97564 16.2202 6.67445 16.2202 7.4576C16.2202 8.24075 16.3889 8.93956 16.7262 9.55404C17.0756 10.1685 17.5516 10.6504 18.154 10.9999C18.7564 11.3372 19.4311 11.5059 20.1781 11.5059Z" fill="white"/>
<path d="M35.3375 13.9999C34.0483 13.9999 32.8796 13.7228 31.8313 13.1686C30.7952 12.6023 29.9759 11.8252 29.3735 10.8372C28.7831 9.83717 28.4879 8.71064 28.4879 7.4576C28.4879 6.20456 28.7831 5.08405 29.3735 4.09608C29.9759 3.09606 30.7952 2.31893 31.8313 1.7647C32.8796 1.19842 34.0543 0.915283 35.3555 0.915283C36.4519 0.915283 37.4399 1.10806 38.3194 1.49361C39.211 1.87916 39.958 2.43339 40.5605 3.1563L38.6809 4.89128C37.8255 3.9033 36.7652 3.40932 35.5001 3.40932C34.717 3.40932 34.0181 3.58402 33.4037 3.93342C32.7892 4.27078 32.3073 4.7467 31.9579 5.36117C31.6205 5.97564 31.4518 6.67445 31.4518 7.4576C31.4518 8.24075 31.6205 8.93956 31.9579 9.55404C32.3073 10.1685 32.7892 10.6504 33.4037 10.9999C34.0181 11.3372 34.717 11.5059 35.5001 11.5059C36.7652 11.5059 37.8255 11.0059 38.6809 10.0059L40.5605 11.7408C39.958 12.4758 39.211 13.036 38.3194 13.4216C37.4279 13.8071 36.4339 13.9999 35.3375 13.9999Z" fill="white"/>
<path d="M54.0714 1.13216V13.783H51.1436V8.59618H45.3965V13.783H42.4687V1.13216H45.3965V6.12022H51.1436V1.13216H54.0714Z" fill="white"/>
<path d="M67.0364 11.4336V13.783H57.241V1.13216H66.8015V3.48161H60.1507V6.22866H66.0243V8.50582H60.1507V11.4336H67.0364Z" fill="white"/>
<path d="M78.1665 7.18651C78.9376 7.41543 79.528 7.78893 79.9376 8.30702C80.3473 8.8251 80.5521 9.46367 80.5521 10.2227C80.5521 11.3432 80.1244 12.2167 79.269 12.8433C78.4256 13.4698 77.2147 13.783 75.6363 13.783H69.4013V1.13216H75.293C76.7629 1.13216 77.9075 1.41529 78.7268 1.98157C79.5461 2.54785 79.9557 3.3551 79.9557 4.40331C79.9557 5.02984 79.7991 5.58406 79.4858 6.066C79.1726 6.53589 78.7328 6.9094 78.1665 7.18651ZM72.311 6.37324H75.0399C75.6785 6.37324 76.1604 6.24673 76.4858 5.99371C76.8111 5.72865 76.9737 5.3431 76.9737 4.83706C76.9737 4.34307 76.805 3.96355 76.4677 3.69848C76.1424 3.43341 75.6665 3.30088 75.0399 3.30088H72.311V6.37324ZM75.5279 11.6143C76.9014 11.6143 77.5882 11.0721 77.5882 9.98778C77.5882 8.93956 76.9014 8.41546 75.5279 8.41546H72.311V11.6143H75.5279Z" fill="white"/>
<path d="M88.8496 13.9999C87.5604 13.9999 86.3917 13.7228 85.3435 13.1686C84.3073 12.6023 83.488 11.8252 82.8856 10.8372C82.2952 9.83717 82 8.71064 82 7.4576C82 6.20456 82.2952 5.08405 82.8856 4.09608C83.488 3.09606 84.3073 2.31893 85.3435 1.7647C86.3917 1.19842 87.5664 0.915283 88.8677 0.915283C89.9641 0.915283 90.9521 1.10806 91.8316 1.49361C92.7232 1.87916 93.4702 2.43339 94.0726 3.1563L92.1931 4.89128C91.3376 3.9033 90.2773 3.40932 89.0123 3.40932C88.2291 3.40932 87.5303 3.58402 86.9158 3.93342C86.3014 4.27078 85.8194 4.7467 85.47 5.36117C85.1326 5.97564 84.964 6.67445 84.964 7.4576C84.964 8.24075 85.1326 8.93956 85.47 9.55404C85.8194 10.1685 86.3014 10.6504 86.9158 10.9999C87.5303 11.3372 88.2291 11.5059 89.0123 11.5059C90.2773 11.5059 91.3376 11.0059 92.1931 10.0059L94.0726 11.7408C93.4702 12.4758 92.7232 13.036 91.8316 13.4216C90.94 13.8071 89.946 13.9999 88.8496 13.9999Z" fill="white"/>
<path d="M100.879 8.68655H98.8544V13.783H95.9447V1.13216H98.8544V6.24673H100.951L104.276 1.13216H107.367L103.228 7.24073L107.493 13.783H104.168L100.879 8.68655Z" fill="white"/>
<path d="M117.184 11.0721H111.31L110.19 13.783H107.19L112.829 1.13216H115.72L121.377 13.783H118.305L117.184 11.0721ZM116.262 8.8492L114.256 4.00572L112.25 8.8492H116.262Z" fill="white"/>
<path d="M132.504 1.13216V13.783H129.613V10.4215H126.938L124.697 13.783H121.606L124.245 9.96971C123.39 9.6203 122.733 9.09619 122.275 8.39738C121.817 7.68652 121.588 6.83711 121.588 5.84913C121.588 4.87321 121.811 4.03584 122.257 3.33703C122.703 2.62617 123.335 2.08398 124.155 1.71048C124.974 1.32493 125.938 1.13216 127.046 1.13216H132.504ZM127.119 3.51775C126.287 3.51775 125.649 3.71053 125.203 4.09608C124.769 4.48163 124.552 5.05393 124.552 5.81299C124.552 6.54794 124.763 7.11422 125.185 7.51182C125.606 7.90942 126.227 8.10822 127.046 8.10822H129.613V3.51775H127.119Z" fill="white"/>
</svg>
