<svg width="54" height="54" viewBox="0 0 54 54" fill="none" xmlns="http://www.w3.org/2000/svg">
<circle cx="27" cy="27" r="27" fill="white" fill-opacity="0.1"/>
<path fill-rule="evenodd" clip-rule="evenodd" d="M30.5616 19L31.5616 23L34.4384 23L35.4384 19H30.5616ZM28.5 19L29.6213 23.4851C29.8439 24.3754 30.6438 25 31.5616 25H32V37H34V25H34.4384C35.3562 25 36.1561 24.3754 36.3787 23.4851L37.5 19L38 17H35.9384H30.0616H28L28.5 19ZM18 23H28V25H26V27H28V29H18V27H20V25H18V23ZM22 25H24V27H22V25ZM30 31H16V33H18V37H20V33H26V37H28V33H30V31Z" fill="#E5BF9B"/>
</svg>
