<svg width="54" height="54" viewBox="0 0 54 54" fill="none" xmlns="http://www.w3.org/2000/svg">
<circle cx="27" cy="27" r="27" fill="white" fill-opacity="0.1"/>
<path fill-rule="evenodd" clip-rule="evenodd" d="M27.5 25C28.8807 25 30 23.8807 30 22.5C30 21.1193 28.8807 20 27.5 20C26.1193 20 25 21.1193 25 22.5C25 23.8807 26.1193 25 27.5 25ZM19 24C19 28.4183 22.5817 32 27 32C31.4183 32 35 28.4183 35 24H37C37 27.2716 35.4289 30.1763 33 32.0007V36.0001H21V32.0007C18.5711 30.1763 17 27.2716 17 24H19ZM21 24C24.3137 24 27 26.6863 27 30C23.6863 30 21 27.3137 21 24ZM29 28C29 25.7909 30.7909 24 33 24V25C33 27.2091 31.2091 29 29 29V28Z" fill="#E5BF9B"/>
</svg>
