<svg width="54" height="54" viewBox="0 0 54 54" fill="none" xmlns="http://www.w3.org/2000/svg">
<circle cx="27" cy="27" r="27" fill="white" fill-opacity="0.1"/>
<path fill-rule="evenodd" clip-rule="evenodd" d="M27.0001 35C27.6243 35 28.2318 34.9285 28.8148 34.7933L29.9909 31.0066L33.9556 30.955C34.5 29.9998 34.8532 28.9215 34.9633 27.7722L31.7527 25.4474L32.9714 21.676C32.2104 20.8231 31.2694 20.1343 30.2081 19.6692L26.9998 22.0001L23.7917 19.6693C22.7304 20.1345 21.7893 20.8234 21.0284 21.6764L22.247 25.4474L19.0368 27.7719C19.1466 28.9189 19.4986 29.9952 20.0411 30.9491L24.0051 31.0039L25.1781 34.7916C25.7634 34.9279 26.3733 35 27.0001 35ZM23.9401 36.5232C24.9045 36.8328 25.9328 37 27.0001 37C28.0642 37 29.0895 36.8338 30.0514 36.5259L30.0514 36.5259C30.0815 36.5163 30.1116 36.5065 30.1416 36.4966C31.389 36.0841 32.5277 35.4328 33.5034 34.5967C34.1891 34.0108 34.7775 33.349 35.2655 32.633L35.2649 32.6313C36.3323 31.0677 36.9676 29.1858 36.9988 27.1573L37.0014 27.1555C37.0098 26.6125 36.9737 26.0641 36.8906 25.5152C36.7061 24.276 36.2943 23.111 35.6989 22.064C35.482 21.6807 35.2418 21.3157 34.9807 20.9701L34.9782 20.9701C33.1525 18.5582 30.2582 17 27.0001 17C23.7419 17 20.8476 18.5582 19.0219 20.9701L19.0189 20.9701C18.7162 21.3708 18.4415 21.7977 18.1986 22.2488C17.6883 23.1922 17.3252 24.2269 17.1402 25.3222C17.035 25.9354 16.9889 26.5488 16.9983 27.1555L17.0013 27.1577C17.0326 29.1827 17.6658 31.0617 18.73 32.6236L18.7292 32.626C19.2574 33.4023 19.9036 34.1152 20.6639 34.7369C21.6213 35.5218 22.727 36.1326 23.9326 36.5207C23.9351 36.5215 23.9376 36.5223 23.9401 36.5232ZM26.9998 23.0001L30.804 25.7641L29.351 30.2362H24.6487L23.1956 25.7641L26.9998 23.0001Z" fill="#E5BF9B"/>
</svg>
