<svg width="54" height="54" viewBox="0 0 54 54" fill="none" xmlns="http://www.w3.org/2000/svg">
<circle cx="27" cy="27" r="27" fill="white" fill-opacity="0.1"/>
<path fill-rule="evenodd" clip-rule="evenodd" d="M34 23C35.6569 23 37 21.6569 37 20C37 18.3431 35.6569 17 34 17C32.3431 17 31 18.3431 31 20C31 21.6569 32.3431 23 34 23ZM35 27.0001C33.61 27.0001 32.22 26.5301 31 25.6801C28.56 27.3901 25.44 27.3901 23 25.6801C21.78 26.5301 20.39 27.0001 19 27.0001H17V29.0001H19C20.38 29.0001 21.74 28.6501 23 28.0101C25.52 29.3001 28.48 29.3001 31 28.0101C32.26 28.6601 33.62 29.0001 35 29.0001H37V27.0001H35ZM31 29.6801C32.22 30.5301 33.61 31.0001 35 31.0001H37V33.0001H35C33.62 33.0001 32.26 32.6601 31 32.0101C28.48 33.3001 25.52 33.3001 23 32.0101C21.74 32.6501 20.38 33.0001 19 33.0001H17V31.0001H19C20.39 31.0001 21.78 30.5301 23 29.6801C25.44 31.3901 28.56 31.3901 31 29.6801ZM31 33.68C32.22 34.53 33.61 35 35 35H37V37H35C33.62 37 32.26 36.66 31 36.01C28.48 37.3 25.52 37.3 23 36.01C21.74 36.65 20.38 37 19 37H17V35H19C20.39 35 21.78 34.53 23 33.68C25.44 35.39 28.56 35.39 31 33.68Z" fill="#E5BF9B"/>
</svg>
