<svg width="54" height="54" viewBox="0 0 54 54" fill="none" xmlns="http://www.w3.org/2000/svg">
<circle cx="27" cy="27" r="27" fill="white" fill-opacity="0.1"/>
<path fill-rule="evenodd" clip-rule="evenodd" d="M17 21C17 20.4477 17.4477 20 18 20H36C36.5523 20 37 20.4477 37 21V32H17V21ZM29 24H25V28H29V24ZM25 22H23V24V28V30H25H29H31V28V24V22H29H25ZM35 25.9999C35 27.6357 34.2144 29.088 33 30.0002V21.9995C34.2144 22.9117 35 24.3641 35 25.9999ZM21 30.0002C19.7856 29.088 19 27.6357 19 25.9999C19 24.3641 19.7856 22.9117 21 21.9995V30.0002ZM37 34H17V35C17 35.5523 17.4477 36 18 36H36C36.5523 36 37 35.5523 37 35V34Z" fill="#E5BF9B"/>
</svg>
