<svg width="40" height="40" viewBox="0 0 40 40" fill="none" xmlns="http://www.w3.org/2000/svg">
<rect width="40" height="40" rx="20" fill="white"/>
<path d="M30.4082 11.8469C31.0331 12.6658 31.5623 13.5555 31.9847 14.4981L20 23.4516L14.9912 20.2696V16.4415L20 19.6235L30.4082 11.8469Z" fill="#21A038"/>
<path d="M9.87943 20C9.87943 19.8282 9.88356 19.6576 9.89183 19.4879L6.85638 19.3372C6.84604 19.557 6.83985 19.779 6.83985 20.0031C6.83856 21.7536 7.17831 23.4872 7.83963 25.1043C8.50094 26.7215 9.4708 28.1904 10.6936 29.4267L12.8467 27.2457C11.9054 26.2956 11.1588 25.1664 10.6495 23.9229C10.1403 22.6795 9.87859 21.3463 9.87943 20Z" fill="url(#paint0_linear_82_4470)"/>
<path d="M19.9971 9.7471C20.1665 9.7471 20.3348 9.75339 20.5022 9.76176L20.6541 6.68442C20.4365 6.67395 20.2174 6.66871 19.9971 6.66871C18.2689 6.66658 16.5575 7.01041 14.9609 7.68046C13.3643 8.35051 11.914 9.33359 10.6934 10.5732L12.8465 12.7553C13.784 11.8011 14.8983 11.0441 16.1255 10.5279C17.3526 10.0116 18.6683 9.74625 19.9971 9.7471Z" fill="url(#paint1_linear_82_4470)"/>
<path d="M19.997 30.254C19.8275 30.254 19.6591 30.254 19.4908 30.2404L19.3389 33.3167C19.5572 33.3278 19.7766 33.3335 19.997 33.3335C21.7244 33.3353 23.435 32.9912 25.0307 32.321C26.6265 31.6507 28.0758 30.6675 29.2955 29.4279L27.1466 27.2468C26.2089 28.2005 25.0947 28.9571 23.8677 29.4732C22.6408 29.9893 21.3254 30.2546 19.997 30.254Z" fill="url(#paint2_linear_82_4470)"/>
<path d="M25.7004 11.5357L28.2585 9.62474C25.9204 7.70594 23.0018 6.66142 19.9932 6.66677V9.7462C22.0305 9.74364 24.0205 10.3676 25.7004 11.5357Z" fill="url(#paint3_linear_82_4470)"/>
<path d="M33.1538 20.0005C33.1554 19.1994 33.0863 18.3997 32.9471 17.6111L30.1153 19.7262C30.1153 19.8173 30.1153 19.9084 30.1153 20.0005C30.116 21.4332 29.8196 22.8501 29.2455 24.1592C28.6713 25.4684 27.8321 26.6407 26.7822 27.6001L28.8248 29.8881C30.1897 28.6393 31.2804 27.1138 32.0261 25.4105C32.7719 23.7072 33.1561 21.864 33.1538 20.0005Z" fill="#21A038"/>
<path d="M20.182 30.2158C18.7682 30.2162 17.3701 29.9158 16.0781 29.3339C14.7862 28.7521 13.6293 27.9017 12.6822 26.8379L10.4258 28.9069C11.6578 30.2904 13.163 31.3959 14.8437 32.1519C16.5244 32.9078 18.3431 33.2973 20.182 33.2951V30.2158Z" fill="url(#paint4_linear_82_4470)"/>
<path d="M13.2124 12.4002L11.1709 10.1123C9.80563 11.3608 8.71456 12.8862 7.96843 14.5895C7.22232 16.2929 6.83781 18.1361 6.83985 19.9998H9.87943C9.87881 18.5672 10.1752 17.1503 10.7493 15.8411C11.3235 14.532 12.1627 13.3597 13.2124 12.4002Z" fill="url(#paint5_linear_82_4470)"/>
<defs>
<linearGradient id="paint0_linear_82_4470" x1="11.3083" y1="29.0425" x2="7.90757" y2="19.3422" gradientUnits="userSpaceOnUse">
<stop offset="0.14" stop-color="#F1E813"/>
<stop offset="0.3" stop-color="#E6E418"/>
<stop offset="0.58" stop-color="#C9DA26"/>
<stop offset="0.89" stop-color="#A2CC39"/>
</linearGradient>
<linearGradient id="paint1_linear_82_4470" x1="11.5612" y1="11.1177" x2="20.1435" y2="7.89056" gradientUnits="userSpaceOnUse">
<stop offset="0.06" stop-color="#0FA7DF"/>
<stop offset="0.54" stop-color="#0098F8"/>
<stop offset="0.92" stop-color="#0290EA"/>
</linearGradient>
<linearGradient id="paint2_linear_82_4470" x1="19.1385" y1="31.4749" x2="28.8233" y2="29.316" gradientUnits="userSpaceOnUse">
<stop offset="0.12" stop-color="#A2CC39"/>
<stop offset="0.28" stop-color="#86C239"/>
<stop offset="0.87" stop-color="#219F38"/>
</linearGradient>
<linearGradient id="paint3_linear_82_4470" x1="19.3609" y1="7.69813" x2="27.6494" y2="10.222" gradientUnits="userSpaceOnUse">
<stop offset="0.06" stop-color="#0290EA"/>
<stop offset="0.79" stop-color="#0C89CA"/>
</linearGradient>
<linearGradient id="paint4_linear_82_4470" x1="11.1883" y1="28.532" x2="20.2184" y2="31.8621" gradientUnits="userSpaceOnUse">
<stop offset="0.13" stop-color="#F1E813"/>
<stop offset="0.3" stop-color="#EAE616"/>
<stop offset="0.53" stop-color="#D8DF1F"/>
<stop offset="0.8" stop-color="#BAD52D"/>
<stop offset="0.98" stop-color="#A2CC39"/>
</linearGradient>
<linearGradient id="paint5_linear_82_4470" x1="7.9722" y1="20.3725" x2="11.6702" y2="10.8805" gradientUnits="userSpaceOnUse">
<stop offset="0.07" stop-color="#A2CC39"/>
<stop offset="0.26" stop-color="#81C45E"/>
<stop offset="0.92" stop-color="#0FA7DF"/>
</linearGradient>
</defs>
</svg>
