<svg width="40" height="40" viewBox="0 0 40 40" fill="none" xmlns="http://www.w3.org/2000/svg">
<rect width="40" height="40" rx="20" fill="white"/>
<path d="M14.1338 20.0001C14.1338 18.8001 14.4671 17.6667 15.1338 16.7334C15.8005 15.7334 16.7338 15.0001 17.8005 14.5334C18.8671 14.0667 20.0671 14.0001 21.2005 14.2001C22.3338 14.4001 23.4005 15.0001 24.2671 15.8001C25.1338 16.6001 25.6671 17.6667 25.8671 18.8667C26.0671 20.0001 26.0005 21.2001 25.5338 22.2667C25.0671 23.3334 24.3338 24.2667 23.3338 24.9334C22.3338 25.6001 21.2005 25.9334 20.0671 25.9334C18.4671 25.9334 17.0005 25.3334 15.8671 24.2001C14.7338 23.0667 14.1338 21.6001 14.1338 20.0001Z" fill="#4FAE2E"/>
<path d="M24.1338 12.5333C24.1338 11.8666 24.3338 11.2 24.7338 10.6666C25.1338 10.1333 25.6671 9.66663 26.2671 9.39997C26.8671 9.1333 27.6005 9.06663 28.2005 9.19997C28.8671 9.3333 29.4671 9.66663 29.9338 10.1333C30.4005 10.6 30.7338 11.2 30.8671 11.8666C31.0005 12.5333 30.9338 13.2 30.6671 13.8C30.4005 14.4 30.0005 14.9333 29.4005 15.3333C28.8671 15.7333 28.2005 15.9333 27.5338 15.9333C26.6005 15.9333 25.8005 15.6 25.1338 14.9333C24.5338 14.2666 24.1338 13.4 24.1338 12.5333Z" fill="#016438"/>
<path d="M6.66699 20.0001C6.66699 16.4667 8.06699 13.0667 10.6003 10.6001C13.067 8.06675 16.467 6.66675 20.0003 6.66675V11.5334C18.3337 11.5334 16.667 12.0001 15.267 12.9334C13.867 13.8667 12.8003 15.2001 12.1337 16.7334C11.467 18.2667 11.3337 20.0001 11.667 21.6667C12.0003 23.3334 12.8003 24.8667 14.0003 26.0001C15.2003 27.2001 16.7337 28.0001 18.4003 28.3334C20.067 28.6667 21.8003 28.4667 23.3337 27.8001C24.867 27.1334 26.2003 26.0667 27.1337 24.6667C28.067 23.2667 28.5337 21.6001 28.5337 19.9334H33.3337C33.3337 21.6667 33.0003 23.4001 32.3337 25.0667C31.667 26.6667 30.667 28.1334 29.467 29.4001C28.2003 30.6667 26.7337 31.6001 25.1337 32.2667C23.5337 32.9334 21.8003 33.3334 20.0003 33.3334C18.267 33.3334 16.5337 33.0001 14.867 32.3334C13.267 31.6667 11.8003 30.6667 10.5337 29.4667C9.26699 28.2001 8.33366 26.7334 7.66699 25.1334C7.00033 23.4667 6.66699 21.7334 6.66699 20.0001Z" fill="#016438"/>
</svg>
