<svg width="133" height="42" viewBox="0 0 133 42" fill="none" xmlns="http://www.w3.org/2000/svg">
<path d="M15.8842 3.19155C15.8842 5.51535 13.8938 7.72639 9.91293 9.82468C10.7169 10.5993 11.3494 11.2513 11.8102 11.7808C12.271 12.3005 12.6681 12.9133 13.0015 13.6192C13.3349 14.3252 13.5016 15.0998 13.5016 15.943C13.5016 17.1883 13.1388 18.2816 12.4132 19.2228C11.6876 20.1641 10.7022 20.8946 9.45699 21.4143C8.21175 21.9241 6.83904 22.1791 5.33886 22.1791C3.71122 22.1791 2.41205 21.8604 1.44135 21.2231C0.480448 20.5759 0 19.5954 0 18.2816C0 16.6441 0.705965 15.1733 2.1179 13.8693C3.52983 12.5554 5.231 11.467 7.22143 10.6042C6.63313 10.0355 6.14288 9.51582 5.75067 9.04518C5.36828 8.56473 5.05451 8.03525 4.80939 7.45675C4.56426 6.86845 4.4417 6.23112 4.4417 5.54477C4.4417 4.46621 4.78487 3.50531 5.47123 2.66208C6.15758 1.81884 7.05475 1.1668 8.16272 0.705965C9.27069 0.235322 10.4277 0 11.6337 0C12.9084 0 13.933 0.269639 14.7076 0.808918C15.492 1.3482 15.8842 2.14241 15.8842 3.19155ZM9.57465 9.50111C10.2708 9.03047 10.913 8.45687 11.5013 7.78032C12.0897 7.10377 12.5603 6.36349 12.9133 5.55947C13.2663 4.74565 13.4428 3.92693 13.4428 3.1033C13.4428 1.39722 12.6583 0.544181 11.0895 0.544181C10.3443 0.544181 9.65309 0.730478 9.01576 1.10307C8.37843 1.46586 7.87347 1.98062 7.50088 2.64737C7.12829 3.30431 6.94199 4.04949 6.94199 4.88292C6.94199 5.47123 7.05475 6.03012 7.28026 6.55959C7.51559 7.07926 7.81464 7.56461 8.17743 8.01564C8.55002 8.45687 9.01576 8.95203 9.57465 9.50111ZM10.8248 16.5755C10.8248 15.8009 10.6777 15.09 10.3836 14.4429C10.0894 13.7957 9.72663 13.227 9.29521 12.7368C8.87359 12.2465 8.29999 11.6484 7.57442 10.9425C6.61352 11.4719 5.76048 12.1387 5.01529 12.9427C4.27991 13.7369 3.70141 14.6194 3.2798 15.5901C2.86798 16.5608 2.66208 17.5511 2.66208 18.561C2.66208 19.5317 2.88759 20.2867 3.33863 20.826C3.79946 21.3652 4.55445 21.6349 5.6036 21.6349C6.51547 21.6349 7.36851 21.4339 8.16272 21.0319C8.96674 20.6299 9.60897 20.0465 10.0894 19.2817C10.5797 18.5071 10.8248 17.605 10.8248 16.5755Z" fill="#E5BF9B"/>
<path d="M28.5622 14.9723H17.6932L18.1345 13.2221H29.0181L28.5622 14.9723Z" fill="#E5BF9B"/>
<path d="M45.1082 19.0758C44.7356 20.1935 44.216 20.9927 43.5492 21.4731C42.8825 21.9437 42.1569 22.1791 41.3725 22.1791C40.039 22.1791 39.3723 21.5466 39.3723 20.2818C39.3723 19.6248 39.5389 18.8404 39.8723 17.9286L41.2695 13.9281C40.7008 14.0654 40.0782 14.1585 39.4017 14.2075C38.8526 14.3252 38.4065 14.4723 38.0633 14.6488C37.7299 14.8155 37.4309 15.0606 37.1661 15.3842C36.9014 15.7077 36.617 16.1735 36.3131 16.7814L35.5924 18.6787C35.1218 19.9435 34.5972 20.8456 34.0187 21.3849C33.45 21.9143 32.7685 22.1791 31.9743 22.1791C31.3272 22.1791 30.7879 22.0075 30.3565 21.6643C29.9251 21.3211 29.5819 20.7671 29.327 20.0023L29.7241 19.7376C29.8908 19.9925 30.1163 20.1886 30.4006 20.3259C30.685 20.4534 30.9595 20.5171 31.2242 20.5171C31.5086 20.5171 31.7439 20.4583 31.9302 20.3406C32.1165 20.2132 32.2734 20.0514 32.4009 19.8553C32.5283 19.6494 32.6754 19.3601 32.8421 18.9875L33.6951 17.0902C34.1462 16.1588 34.6658 15.4773 35.2541 15.0459C35.8424 14.6145 36.519 14.3252 37.2838 14.1781C36.3131 14.0409 35.5728 13.7173 35.0629 13.2074C34.5531 12.6878 34.2981 12.0308 34.2981 11.2366C34.2981 10.4718 34.5237 9.68251 34.9747 8.86868C35.4257 8.04506 36.2003 7.33909 37.2985 6.75079C38.3967 6.15268 39.8478 5.85363 41.6519 5.85363C43.0345 5.85363 44.0297 6.04973 44.6376 6.44193C45.2553 6.83413 45.5642 7.43714 45.5642 8.25097C45.5642 8.83927 45.4122 9.57465 45.1082 10.4571L42.0049 19.1934C41.8775 19.5562 41.8137 19.8945 41.8137 20.2082C41.8137 20.7769 42.0687 21.0613 42.5785 21.0613C43.0099 21.0613 43.407 20.826 43.7698 20.3553C44.1326 19.8749 44.5101 19.0856 44.9023 17.9874L45.2847 16.8696H45.8583L45.1082 19.0758ZM42.6668 9.97176C43.0001 9.03047 43.1668 8.29999 43.1668 7.78032C43.1668 7.27046 43.0246 6.91257 42.7403 6.70667C42.456 6.50076 42.0294 6.39781 41.4607 6.39781C40.6077 6.39781 39.8184 6.58901 39.0928 6.9714C38.3672 7.344 37.7887 7.87837 37.3573 8.57453C36.9259 9.26089 36.7102 10.0502 36.7102 10.9425C36.7102 11.7563 36.921 12.4034 37.3426 12.8839C37.7642 13.3545 38.4457 13.5898 39.387 13.5898C40.0047 13.5898 40.6959 13.5261 41.4607 13.3986L42.6668 9.97176Z" fill="#E5BF9B"/>
<path d="M7.27534 41.9999C5.98615 41.9999 4.81745 41.7228 3.76923 41.1686C2.73306 40.6023 1.91377 39.8252 1.31134 38.8372C0.720969 37.8372 0.425781 36.7106 0.425781 35.4576C0.425781 34.2046 0.720969 33.0841 1.31134 32.0961C1.91377 31.0961 2.73306 30.3189 3.76923 29.7647C4.81745 29.1984 5.99218 28.9153 7.29341 28.9153C8.38982 28.9153 9.3778 29.1081 10.2573 29.4936C11.1489 29.8792 11.8959 30.4334 12.4984 31.1563L10.6188 32.8913C9.76335 31.9033 8.70308 31.4093 7.43799 31.4093C6.65484 31.4093 5.95603 31.584 5.34156 31.9334C4.72709 32.2708 4.24515 32.7467 3.89574 33.3612C3.55838 33.9756 3.38971 34.6745 3.38971 35.4576C3.38971 36.2408 3.55838 36.9396 3.89574 37.554C4.24515 38.1685 4.72709 38.6504 5.34156 38.9999C5.95603 39.3372 6.65484 39.5059 7.43799 39.5059C8.70308 39.5059 9.76335 39.0059 10.6188 38.0059L12.4984 39.7408C11.8959 40.4758 11.1489 41.036 10.2573 41.4216C9.36575 41.8071 8.37175 41.9999 7.27534 41.9999Z" fill="white"/>
<path d="M20.1781 41.9999C18.8648 41.9999 17.6781 41.7168 16.6178 41.1505C15.5696 40.5842 14.7443 39.8071 14.1418 38.8191C13.5515 37.8191 13.2563 36.6986 13.2563 35.4576C13.2563 34.2166 13.5515 33.1021 14.1418 32.1142C14.7443 31.1141 15.5696 30.331 16.6178 29.7647C17.6781 29.1984 18.8648 28.9153 20.1781 28.9153C21.4914 28.9153 22.6722 29.1984 23.7204 29.7647C24.7686 30.331 25.5939 31.1141 26.1963 32.1142C26.7988 33.1021 27.1 34.2166 27.1 35.4576C27.1 36.6986 26.7988 37.8191 26.1963 38.8191C25.5939 39.8071 24.7686 40.5842 23.7204 41.1505C22.6722 41.7168 21.4914 41.9999 20.1781 41.9999ZM20.1781 39.5059C20.9251 39.5059 21.5998 39.3372 22.2023 38.9999C22.8047 38.6504 23.2746 38.1685 23.6119 37.554C23.9613 36.9396 24.136 36.2408 24.136 35.4576C24.136 34.6745 23.9613 33.9756 23.6119 33.3612C23.2746 32.7467 22.8047 32.2708 22.2023 31.9334C21.5998 31.584 20.9251 31.4093 20.1781 31.4093C19.4311 31.4093 18.7564 31.584 18.154 31.9334C17.5516 32.2708 17.0756 32.7467 16.7262 33.3612C16.3889 33.9756 16.2202 34.6745 16.2202 35.4576C16.2202 36.2408 16.3889 36.9396 16.7262 37.554C17.0756 38.1685 17.5516 38.6504 18.154 38.9999C18.7564 39.3372 19.4311 39.5059 20.1781 39.5059Z" fill="white"/>
<path d="M35.3375 41.9999C34.0483 41.9999 32.8796 41.7228 31.8313 41.1686C30.7952 40.6023 29.9759 39.8252 29.3735 38.8372C28.7831 37.8372 28.4879 36.7106 28.4879 35.4576C28.4879 34.2046 28.7831 33.0841 29.3735 32.0961C29.9759 31.0961 30.7952 30.3189 31.8313 29.7647C32.8796 29.1984 34.0543 28.9153 35.3555 28.9153C36.4519 28.9153 37.4399 29.1081 38.3194 29.4936C39.211 29.8792 39.958 30.4334 40.5605 31.1563L38.6809 32.8913C37.8255 31.9033 36.7652 31.4093 35.5001 31.4093C34.717 31.4093 34.0181 31.584 33.4037 31.9334C32.7892 32.2708 32.3073 32.7467 31.9579 33.3612C31.6205 33.9756 31.4518 34.6745 31.4518 35.4576C31.4518 36.2408 31.6205 36.9396 31.9579 37.554C32.3073 38.1685 32.7892 38.6504 33.4037 38.9999C34.0181 39.3372 34.717 39.5059 35.5001 39.5059C36.7652 39.5059 37.8255 39.0059 38.6809 38.0059L40.5605 39.7408C39.958 40.4758 39.211 41.036 38.3194 41.4216C37.4279 41.8071 36.4339 41.9999 35.3375 41.9999Z" fill="white"/>
<path d="M54.0714 29.1322V41.783H51.1436V36.5962H45.3965V41.783H42.4687V29.1322H45.3965V34.1202H51.1436V29.1322H54.0714Z" fill="white"/>
<path d="M67.0364 39.4336V41.783H57.241V29.1322H66.8015V31.4816H60.1507V34.2287H66.0243V36.5058H60.1507V39.4336H67.0364Z" fill="white"/>
<path d="M78.1665 35.1865C78.9376 35.4154 79.528 35.7889 79.9376 36.307C80.3473 36.8251 80.5521 37.4637 80.5521 38.2227C80.5521 39.3432 80.1244 40.2167 79.269 40.8433C78.4256 41.4698 77.2147 41.783 75.6363 41.783H69.4013V29.1322H75.293C76.7629 29.1322 77.9075 29.4153 78.7268 29.9816C79.5461 30.5479 79.9557 31.3551 79.9557 32.4033C79.9557 33.0298 79.7991 33.5841 79.4858 34.066C79.1726 34.5359 78.7328 34.9094 78.1665 35.1865ZM72.311 34.3732H75.0399C75.6785 34.3732 76.1604 34.2467 76.4858 33.9937C76.8111 33.7286 76.9737 33.3431 76.9737 32.8371C76.9737 32.3431 76.805 31.9635 76.4677 31.6985C76.1424 31.4334 75.6665 31.3009 75.0399 31.3009H72.311V34.3732ZM75.5279 39.6143C76.9014 39.6143 77.5882 39.0721 77.5882 37.9878C77.5882 36.9396 76.9014 36.4155 75.5279 36.4155H72.311V39.6143H75.5279Z" fill="white"/>
<path d="M88.8496 41.9999C87.5604 41.9999 86.3917 41.7228 85.3435 41.1686C84.3073 40.6023 83.488 39.8252 82.8856 38.8372C82.2952 37.8372 82 36.7106 82 35.4576C82 34.2046 82.2952 33.0841 82.8856 32.0961C83.488 31.0961 84.3073 30.3189 85.3435 29.7647C86.3917 29.1984 87.5664 28.9153 88.8677 28.9153C89.9641 28.9153 90.9521 29.1081 91.8316 29.4936C92.7232 29.8792 93.4702 30.4334 94.0726 31.1563L92.1931 32.8913C91.3376 31.9033 90.2773 31.4093 89.0123 31.4093C88.2291 31.4093 87.5303 31.584 86.9158 31.9334C86.3014 32.2708 85.8194 32.7467 85.47 33.3612C85.1326 33.9756 84.964 34.6745 84.964 35.4576C84.964 36.2408 85.1326 36.9396 85.47 37.554C85.8194 38.1685 86.3014 38.6504 86.9158 38.9999C87.5303 39.3372 88.2291 39.5059 89.0123 39.5059C90.2773 39.5059 91.3376 39.0059 92.1931 38.0059L94.0726 39.7408C93.4702 40.4758 92.7232 41.036 91.8316 41.4216C90.94 41.8071 89.946 41.9999 88.8496 41.9999Z" fill="white"/>
<path d="M100.879 36.6865H98.8544V41.783H95.9447V29.1322H98.8544V34.2467H100.951L104.276 29.1322H107.367L103.228 35.2407L107.493 41.783H104.168L100.879 36.6865Z" fill="white"/>
<path d="M117.184 39.0721H111.31L110.19 41.783H107.19L112.829 29.1322H115.72L121.377 41.783H118.305L117.184 39.0721ZM116.262 36.8492L114.256 32.0057L112.25 36.8492H116.262Z" fill="white"/>
<path d="M132.504 29.1322V41.783H129.613V38.4215H126.938L124.697 41.783H121.606L124.245 37.9697C123.39 37.6203 122.733 37.0962 122.275 36.3974C121.817 35.6865 121.588 34.8371 121.588 33.8491C121.588 32.8732 121.811 32.0358 122.257 31.337C122.703 30.6262 123.335 30.084 124.155 29.7105C124.974 29.3249 125.938 29.1322 127.046 29.1322H132.504ZM127.119 31.5178C126.287 31.5178 125.649 31.7105 125.203 32.0961C124.769 32.4816 124.552 33.0539 124.552 33.813C124.552 34.5479 124.763 35.1142 125.185 35.5118C125.606 35.9094 126.227 36.1082 127.046 36.1082H129.613V31.5178H127.119Z" fill="white"/>
</svg>
